<?xml version="1.0"?><svg width="640" height="480" xmlns="http://www.w3.org/2000/svg">
 <title>blue bus - 170</title>
 <metadata id="metadata8">image/svg+xml</metadata>
 <g>
  <title>Layer 1</title>
  <g transform="rotate(-180 327.228759765625,223.07312011718747) " id="g10">
   <path fill="#2a7fff" fill-rule="evenodd" d="m41.928894,152.698761c-3.708252,14.934967 -4.67807,42.618744 -4.67807,70.349976c0,27.636261 0.969818,55.318756 4.619629,70.206268c2.73999,11.608765 13.404694,17.173737 28.807404,16.746246l453.899536,0c20.533508,0.1875 39.929321,0.236237 48.93927,-1.191254c19.963928,-3.236237 33.941101,-8.98877 37.019897,-18.502502c5.877197,-17.549988 8.60968,-42.428741 8.60968,-67.307495c0,-24.876251 -2.678528,-49.799988 -8.552734,-67.35376c-3.080261,-9.511261 -17.112915,-15.219971 -37.076843,-18.454987c-9.009949,-1.427521 -28.405762,-1.427521 -48.93927,-1.236237l-453.899536,0c-15.40271,-0.380035 -26.008972,5.138733 -28.748962,16.743744" id="path342"/>
   <path fill="#8d8f93" fill-rule="evenodd" d="m497.61499,307.42749l-66.401184,-3.459991c-8.420044,-0.436249 -13.272583,-2.393738 -13.745056,-4.253754l-1.431274,-5.491241c-0.283752,-1.141266 3.806274,-1.947479 9.942566,-1.947479l12.844971,0c13.887512,0 25.304993,0.509979 33.531311,1.751251l26.402405,3.992462c5.756287,0.858765 9.845032,2.065002 9.797485,3.523743l-0.094971,4.611267c0,0.881256 -5.947449,1.532501 -10.846252,1.273743" id="path344"/>
   <path fill="#d2d2d1" fill-rule="evenodd" d="m468.029968,293.971252l4.945007,11.700012l-41.66748,-2.1875c-2.945007,-0.142517 -5.942566,-0.571259 -8.847534,-1.285004c-5.04126,-1.33252 -4.518738,-2.616272 -5.896301,-8.037506c0,-1.048767 7.421265,-1.42749 8.323853,-1.42749c14.366211,0 28.824951,-0.237488 43.142456,1.237488" id="path346"/>
   <path fill="#d2d2d1" fill-rule="evenodd" d="m477.637512,305.908752l-4.756226,-11.224976c10.942444,1.616241 22.26123,2.52124 32.867493,5.326233c3.379944,1.096252 2.331238,2.188751 2.282471,5.995026c-0.950012,0.951202 -8.22998,0.951202 -9.465027,0.951202l-20.928711,-1.047485" id="path348"/>
   <path fill="#8d8f93" fill-rule="evenodd" d="m508.652527,306.956238c1.380005,0 2.52002,0.570007 4.231262,2.377502c2.76001,2.901245 1.382507,4.518768 0.476257,7.89624c-0.998779,3.567535 -0.33374,2.996277 -2.709961,6.517517c-1.476318,2.09375 -3.046326,2.377502 -5.661316,2.377502c-1.331177,0 -2.661255,-1.095001 -2.378723,-2.377502l3.662476,-14.413757c0.284973,-1.283752 1.09375,-2.377502 2.380005,-2.377502" id="path350"/>
   <path fill="#8d8f93" fill-rule="evenodd" d="m508.888733,306.956238c1.332458,0.046265 2.711243,0.902527 4.043762,2.377502c0.476257,0.427521 0.762512,0.903748 0.997498,1.377502c1.902466,-2.803741 3.236267,-8.464996 0.664978,-8.607483c-2.233704,-0.237518 -3.232483,0.095001 -4.233765,0.332489c-1.278687,0.238739 -1.899963,2.758759 -1.472473,4.519989" id="path352"/>
   <path fill="#8d8f93" fill-rule="evenodd" d="m421.320007,304.577515l2.94873,0c1.995056,0 3.665039,0.342499 3.665039,0.753723l0,2.727509c0,0.408752 -1.618835,0.751251 -3.665039,0.751251l-2.94873,0c-2.044983,0 -3.663818,-0.328735 -3.663818,-0.751251l0,-2.727509c0,-0.423737 1.618835,-0.753723 3.663818,-0.753723" id="path354"/>
   <path fill="#8d8f93" fill-rule="evenodd" d="m410.667542,287.502502l0.062439,2.232544c31.091248,0.097443 59.695007,0.189941 64.460022,1.001221l0,-0.096222c23.368774,2.852448 39.752502,9.464966 55.061279,8.038727c10.742493,-1.045013 13.22876,-7.373779 15.04126,-14.268738c5.503784,-20.740021 7.98999,-40.956299 7.98999,-61.410004c0,-20.451233 -2.148743,-40.619995 -7.922485,-61.311249c-1.880005,-6.849976 -4.298767,-13.176239 -15.108765,-14.222504c-15.308777,-1.475006 -31.626221,5.183746 -55.061279,7.991241l0,-0.046265l-8.727478,1.045013c-0.27002,0.665009 -0.471252,1.381256 -0.471252,2.1875l8.463806,-1.09375c2.884949,22.308746 5.03241,43.951263 5.03241,65.548737c0,21.640015 -2.282471,43.235016 -5.102478,65.450012c-4.028748,-1.236267 -24.441223,-1.046265 -63.717468,-1.046265" id="path358"/>
   <path fill="#d2d2d1" fill-rule="evenodd" d="m478.116272,171.961243c2.516235,21.690002 3.946228,43.618744 2.945007,65.451233c-0.285034,12.891296 -1.806274,26.115021 -3.232483,38.956268c-0.476318,4.186249 -1.047546,8.421265 -1.570068,12.560028c15.220032,1.997467 30.157532,6.468719 45.427551,7.991211c6.941223,0.428772 15.314941,0.522522 19.312439,-6.13623c2.565002,-4.518768 3.804993,-11.368744 4.898743,-16.411255c8.132568,-36.293732 7.561279,-76.248749 -2.283691,-112.112488c-1.33252,-4.757507 -2.806213,-9.038757 -7.468811,-11.368744c-8.517456,-3.61499 -21.167419,-0.903778 -29.918762,0.806244c-9.654968,2.191223 -19.879944,4.378723 -29.779907,5.52124c-0.187561,0.950012 0.334961,3.232483 0.429932,4.326233c0.428833,3.377502 0.857605,6.992493 1.240051,10.41626" id="path360"/>
   <path fill="#3b3b3c" fill-rule="evenodd" d="m562.028748,216.113739l-3.526184,-39.513733c-0.043823,-0.472534 0.77124,-1.070038 1.46991,-0.990021l7.727539,1.126221c0.958801,0.105042 1.636292,0.857513 1.669983,1.233765l3.318787,37.192535c0.033691,0.377472 -0.610046,0.912476 -1.46875,0.992462l-7.567505,0.67627c-0.861267,0.075012 -1.582458,-0.243744 -1.623779,-0.717499" id="path362"/>
   <path fill="#e9e8e8" fill-rule="evenodd" d="m575.816223,290.071259c-2,11.27124 5.897522,18.073761 18.168701,7.420013c3.94635,-3.472534 11.795044,-13.130005 11.701294,-30.966278c-9.038757,2.425018 -28.253723,14.221283 -29.869995,23.546265" id="path364"/>
   <path fill="#8d8f93" fill-rule="evenodd" d="m81.431274,166.253723c0,-3.046265 -0.713776,-5.419983 -1.451263,-5.419983l-6.987488,0c-0.813751,0 -4.131256,3.423737 -4.182526,6.278748c-1.676208,23.068756 -2.845001,39.478729 -2.845001,56.03125c0,16.362488 1.130035,32.917511 2.83374,55.986237c0.052521,2.852509 3.380035,6.231293 4.193787,6.231293l6.987488,0c0.737488,0 1.437469,-2.378784 1.437469,-5.375031c-1.217468,-18.978729 -2.237457,-37.767487 -2.237457,-56.887482c0,-19.125031 0.496246,-37.865021 2.251251,-56.845032" id="path368"/>
   <path fill="#d2d2d1" fill-rule="evenodd" d="m73.102478,161.308746c-1.855011,0.617493 -3.567505,4.04126 -3.803741,5.850006c-1.047516,15.886261 -2.758759,32.202515 -2.758759,48.232483c-0.618744,21.16626 1.329987,42.620026 2.711273,63.690033c0.331207,1.759979 1.996216,5.186249 3.851227,5.80249l6.897522,0c1.713745,-3.471252 0.66748,-10.036255 0.382507,-13.746246c-0.953766,-18.216248 -2.096252,-36.910034 -1.618774,-55.176239c0,-16.600006 0.856232,-33.200012 2.1875,-49.70755c-0.048767,-1.666199 -0.189972,-3.422455 -0.951233,-4.944977l-6.897522,0" id="path370"/>
   <path fill="#8d8f93" fill-rule="evenodd" d="m39.828735,152.698761c2.282501,-11.605011 11.225037,-17.220032 24.068787,-16.743744l1.807465,0l1.237518,17.79126l-22.643768,-1.142517c-3.612488,16.027496 -5.089996,43.047485 -5.089996,70.254974c0,26.730011 1.282501,53.702515 5.042511,70.396271l22.641266,-1.09375l-1.236267,17.79126l-1.758728,0c-12.84375,0.476227 -21.786285,-5.137512 -24.068787,-16.746277c-3.043732,-14.838745 -3.803741,-42.52124 -3.803741,-70.206238c0,-23.068787 -0.763763,-47.850006 3.803741,-70.301239" id="path372"/>
   <path fill="#8d8f93" fill-rule="evenodd" d="m603.262512,267.33374l0,-0.144989l0.329956,0l-0.329956,0.144989zm-0.049988,-88.474976l0.379944,0.096252l-0.379944,0l0,-0.096252zm-21.690063,-35.388763c3.237549,-0.57251 7.517578,0.762482 12.557556,5.138733c3.804993,3.52002 11.606262,12.936249 11.699951,30.346283l0.47876,0c3.993774,12.272522 5.942566,26.257507 5.70752,42.096252l-0.048706,0l0.048706,0.283752c-0.048706,1.237488 -0.048706,2.473724 -0.096252,3.758728l0.190063,0c0.191162,15.841278 -1.710083,29.872528 -5.755005,42.095001l-0.525085,0c-0.093689,17.45752 -7.848694,26.829987 -11.699951,30.347504c-5.039978,4.377502 -9.320007,5.756256 -12.512512,5.138763l-5.80127,6.800018c2.09375,-0.187531 3.901306,-0.428772 5.375,-0.665039c16.647461,-3.236237 28.257507,-8.941254 30.825012,-18.453735c4.946228,-17.598755 7.230042,-42.430023 7.230042,-67.356232c0,-0.663757 0,-1.283752 0,-1.948761l-0.050049,0c-0.092468,-24.212494 -2.376221,-48.137482 -7.179993,-65.215027c-2.567505,-9.509979 -14.177551,-15.219971 -30.825012,-18.454987c-1.52002,-0.283752 -3.328735,-0.474976 -5.419983,-0.663727l5.801208,6.752472" id="path374"/>
   <path fill="#8d8f93" fill-rule="evenodd" d="m497.664978,138.671265l-66.402527,3.462494c-8.421265,0.429993 -13.273743,2.390015 -13.748779,4.251251l-1.426147,5.48999c-0.285034,1.143768 3.803772,1.94751 9.943787,1.94751l12.841248,0c13.887451,0 25.303711,-0.511261 33.535034,-1.752502l26.397461,-3.991241c5.756226,-0.856262 9.847473,-2.065002 9.798706,-3.523743l-0.096252,-4.610016c0,-0.882507 -5.943665,-1.533752 -10.842468,-1.273743" id="path376"/>
   <path fill="#d2d2d1" fill-rule="evenodd" d="m468.029968,152.128754l4.945007,-11.702484l-41.66748,2.1875c-2.945007,0.141235 -5.942566,0.571228 -8.847534,1.283752c-5.04126,1.33374 -4.518738,2.617493 -5.896301,8.038757c0,1.048706 7.421265,1.426239 8.323853,1.426239c14.366211,0 28.824951,0.238739 43.142456,-1.233765" id="path378"/>
   <path fill="#d2d2d1" fill-rule="evenodd" d="m477.637512,140.1875l-4.756226,11.227478c10.942444,-1.617493 22.26123,-2.522491 32.867493,-5.328735c3.379944,-1.091248 2.331238,-2.188751 2.282471,-5.992523c-0.950012,-0.951233 -8.22998,-0.951233 -9.465027,-0.951233l-20.928711,1.045013" id="path380"/>
   <path fill="#8d8f93" fill-rule="evenodd" d="m508.699951,139.191254c1.378784,0 2.522522,-0.571259 4.232544,-2.381256c2.757446,-2.900024 1.378723,-4.518738 0.476257,-7.89502c-1.000061,-3.566223 -0.33374,-2.997467 -2.711243,-6.514954c-1.473755,-2.093781 -3.046265,-2.378784 -5.661255,-2.378784c-1.33374,0 -2.663818,1.09375 -2.380066,2.378784l3.663818,14.409973c0.284973,1.287506 1.096252,2.381256 2.379944,2.381256" id="path382"/>
   <path fill="#8d8f93" fill-rule="evenodd" d="m508.9375,139.191254c1.330017,-0.048767 2.713745,-0.906281 4.04126,-2.381256c0.47876,-0.427521 0.762512,-0.902466 1.001221,-1.377502c1.902527,2.806244 3.236267,8.465027 0.66626,8.607483c-2.237549,0.240051 -3.236206,-0.093719 -4.236267,-0.331207c-1.28125,-0.23877 -1.902466,-2.758759 -1.472473,-4.517517" id="path384"/>
   <path fill="#8d8f93" fill-rule="evenodd" d="m421.36499,141.567505l2.951294,0c1.998779,0 3.663696,-0.341278 3.663696,-0.752502l0,-2.730011c0,-0.404968 -1.618713,-0.748749 -3.663696,-0.748749l-2.951294,0c-2.043762,0 -3.661255,0.329987 -3.661255,0.748749l0,2.730011c0,0.423737 1.617493,0.752502 3.661255,0.752502" id="path386"/>
   <path fill="#e9e8e8" fill-rule="evenodd" d="m575.816223,156.027496c-2,-11.272522 5.897522,-18.074982 18.168701,-7.418762c3.94635,3.472504 11.795044,13.127472 11.701294,30.964996c-9.038757,-2.424988 -28.253723,-14.223724 -29.869995,-23.546234" id="path390"/>
   <path fill="#3b3b3c" fill-rule="evenodd" d="m602.901245,263.766235c1.63501,-0.473724 2.453796,-1.047485 3.311279,-2.569977c0.572449,-0.950012 1.491211,-2.570007 1.57373,-5.327484c1.838806,-7.990021 2.837463,-20.310028 2.837463,-32.677521c0,-12.367523 -1.304993,-24.686279 -2.817444,-32.630005c-0.081238,-2.711243 -1.001282,-4.330017 -1.575012,-5.327484c-0.857483,-1.521271 -1.675049,-2.092529 -3.311218,-2.52002c3.107422,13.318726 4.067444,26.63501 4.394958,39.907471c0.348755,13.888794 -2.163757,28.823792 -4.413757,41.14502" id="path404"/>
   <path fill="#e9e8e8" fill-rule="evenodd" d="m610.441223,223.238739c0,3.117493 -0.756226,5.660004 -1.687439,5.660004c-0.931274,0 -1.686279,-2.542511 -1.686279,-5.660004c0,-3.116241 0.755005,-5.661224 1.686279,-5.661224c0.931213,0 1.687439,2.544983 1.687439,5.661224" id="path406"/>
   <path fill="#211d1d" fill-rule="nonzero" d="m165.036224,292.190033l224.649994,0.498718l0,-0.018738l-224.649994,-0.5" id="path866"/>
   <path fill="#211d1d" fill-rule="nonzero" d="m389.686218,292.688751c3.592529,0 6.375,0.132477 8.258728,0.439972c1.88501,0.307526 2.866333,0.795044 2.863831,1.48877l0.018738,0c-0.007568,-1.42749 -3.955017,-1.945007 -11.141296,-1.94751l0,0.018768" id="path868"/>
   <path fill="#211d1d" fill-rule="nonzero" d="m400.808777,299.132507l0.018982,0l0,-4.514648l-0.018982,0l0,4.514648z" id="path870"/>
   <path fill="#211d1d" fill-rule="nonzero" d="m400.808777,299.132507c0,0.996246 -0.848816,2.279999 -4.128723,2.942505l0.003723,0.018738c3.283752,-0.662506 4.143738,-1.951263 4.143738,-2.961243l-0.018738,0" id="path872"/>
   <path fill="#211d1d" fill-rule="nonzero" d="m396.680054,302.075012l-13.984985,2.897491l0.003723,0.018738l13.984985,-2.897491" id="path874"/>
   <path fill="#211d1d" fill-rule="nonzero" d="m382.695068,304.972504c-5.891296,1.209991 -7.858765,1.533752 -19.777527,1.533752c-0.403748,0 -0.817505,0 -1.243774,-0.001251l0,0.019989c0.42627,0 0.840027,0 1.243774,0c11.918762,0 13.889954,-0.32373 19.78125,-1.533752l-0.003723,-0.018738" id="path876"/>
   <path fill="#211d1d" fill-rule="nonzero" d="m361.673767,306.505005l-197.875031,-0.383759l0,0.018738l197.875031,0.38501" id="path878"/>
   <path fill="#211d1d" fill-rule="nonzero" d="m289.029968,289.642487l0.525024,20.358765l0.018738,0l-0.525024,-20.358765" id="path880"/>
   <path fill="#211d1d" fill-rule="nonzero" d="m597.376282,266.657501c-16.498718,2.85498 -31.734985,6.565002 -45.618713,11.273743l0.006226,0.018738c13.882507,-4.709991 29.117493,-8.418732 45.616211,-11.272491l-0.003723,-0.019989" id="path882"/>
   <path fill="#211d1d" fill-rule="nonzero" d="m575.938782,291.058746c-12.440063,2.334961 -26.987549,4.084961 -35.428833,4.084961c-2.049927,0 -3.73999,-0.103729 -4.951233,-0.326233l-0.003723,0.018768c1.213745,0.222473 2.905029,0.326233 4.954956,0.326233c8.443787,0 22.991272,-1.75 35.432556,-4.085022l-0.003723,-0.018707" id="path884"/>
   <path fill="#211d1d" fill-rule="nonzero" d="m410.748779,309.952515l0.018494,0l0,-22.450256l-0.018494,0l0,22.450256z" id="path888"/>
   <path fill="#211d1d" fill-rule="nonzero" d="m405.94751,309.952515l0.02002,0l0,-90.422913l-0.02002,0l0,90.422913z" id="path890"/>
   <path fill="#211d1d" fill-rule="nonzero" d="m164.227509,289.744995l246.440033,0l0,-0.019989l-246.440033,0l0,0.019989z" id="path894"/>
   <path fill="#211d1d" fill-rule="nonzero" d="m164.227509,287.463745l246.440033,0l0,-0.018982l-246.440033,0l0,0.018982z" id="path896"/>
   <path fill="#211d1d" fill-rule="nonzero" d="m520.86499,298.107483l-1.282532,12.177521l0.018799,0.001221l1.282471,-12.17749" id="path898"/>
   <path fill="#211d1d" fill-rule="nonzero" d="m165.036224,153.925018l224.649994,-0.496246l0,-0.018768l-224.649994,0.496246" id="path900"/>
   <path fill="#211d1d" fill-rule="nonzero" d="m389.686218,153.428772c7.186279,-0.002533 11.133728,-0.522522 11.141296,-1.946259l-0.018738,0c0.002502,0.692505 -0.978821,1.178741 -2.863831,1.486237c-1.883728,0.308777 -4.666199,0.441254 -8.258728,0.441254l0,0.018768" id="path902"/>
   <path fill="#211d1d" fill-rule="nonzero" d="m400.808777,151.482513l0.018982,0l0,-4.518555l-0.018982,0l0,4.518555z" id="path904"/>
   <path fill="#211d1d" fill-rule="nonzero" d="m400.827515,146.963776c0,-1.008759 -0.859985,-2.296265 -4.143738,-2.960022l-0.003723,0.018768c3.279907,0.663757 4.128723,1.946259 4.128723,2.941254l0.018738,0" id="path906"/>
   <path fill="#211d1d" fill-rule="nonzero" d="m396.683777,144.003754l-13.984985,-2.896271l-0.003723,0.018768l13.984985,2.89624" id="path908"/>
   <path fill="#211d1d" fill-rule="nonzero" d="m382.698792,141.107483c-5.872498,-1.204987 -7.851257,-1.533752 -19.672485,-1.533752c-0.437561,0 -0.887512,0 -1.352539,0.001282l0,0.018738c0.465027,-0.001282 0.914978,-0.001282 1.352539,-0.001282c11.822449,0 13.796204,0.328766 19.668762,1.533783l0.003723,-0.018768" id="path910"/>
   <path fill="#211d1d" fill-rule="nonzero" d="m361.673767,139.575012l-197.875031,0.382507l0,0.018707l197.875031,-0.382477" id="path912"/>
   <path fill="#211d1d" fill-rule="nonzero" d="m289.098755,156.407501l0.52124,-20.311218l-0.018738,0l-0.522522,20.311218" id="path914"/>
   <path fill="#211d1d" fill-rule="nonzero" d="m597.380005,179.421234c-16.498718,-2.853729 -31.733765,-6.563751 -45.616211,-11.272491l-0.006226,0.017487c13.883728,4.708771 29.119934,8.419983 45.618713,11.273773l0.003723,-0.018768" id="path916"/>
   <path fill="#211d1d" fill-rule="nonzero" d="m575.942505,155.019989c-12.441284,-2.333771 -26.98877,-4.08374 -35.432556,-4.08374c-2.051208,0 -3.741211,0.102509 -4.954956,0.326233l0.003723,0.018768c1.211243,-0.222504 2.901245,-0.326294 4.951233,-0.326294c8.441284,0 22.98877,1.750061 35.428833,4.083771l0.003723,-0.018738" id="path918"/>
   <path fill="#211d1d" fill-rule="nonzero" d="m410.799988,158.643768l0.018982,0l0,-22.449768l-0.018982,0l0,22.449768z" id="path922"/>
   <path fill="#211d1d" fill-rule="nonzero" d="m164.227509,156.371216l246.440033,0l0,-0.018494l-246.440033,0l0,0.018494z" id="path926"/>
   <path fill="#211d1d" fill-rule="nonzero" d="m164.227509,158.653748l246.440033,0l0,-0.019989l-246.440033,0l0,0.019989z" id="path928"/>
   <path fill="#211d1d" fill-rule="nonzero" d="m520.933716,148.035004l-1.285034,-12.174988l-0.018738,0.001221l1.284973,12.1763" id="path930"/>
   <path fill="#211d1d" fill-rule="nonzero" d="m601.763733,267.90625c3.371277,-13.09375 5.743713,-27.204987 5.743713,-43.881256c0,-1.738739 -0.026245,-3.506226 -0.078735,-5.303711l-0.02002,0.001221c0.053833,1.796265 0.078735,3.563751 0.078735,5.30249c0,16.675018 -2.371216,30.783783 -5.742493,43.876282l0.018799,0.004974" id="path952"/>
   <path fill="#211d1d" fill-rule="nonzero" d="m601.69873,178.577515c3.369995,13.091217 5.741272,27.195007 5.741272,43.866211c0,1.742523 -0.026245,3.512543 -0.080017,5.3125l0.019958,0c0.05249,-1.799957 0.078735,-3.569977 0.078735,-5.3125c0,-16.672485 -2.371216,-30.778717 -5.741211,-43.871216l-0.018738,0.005005" id="path954"/>
   <rect fill="#d2d2d1" ry="6.516768" transform="matrix(1.25,0,0,1.25,0,750) " y="-486.42197" x="72.9219" height="13.033536" width="248.53607" id="rect4902"/>
   <path fill="#8d8f93" fill-rule="evenodd" d="m335.028687,147.738525l0.005005,4.886169c0.003723,3.309174 0.227783,6.064392 0.495117,6.062683l1.774475,-0.011261c0.263184,-0.001221 0.484009,-2.683197 0.480652,-6.068909l-0.005005,-4.8862c-0.003723,-3.383667 -0.22052,-6.060272 -0.492676,-6.058533l-1.774475,0.011261c-0.275452,0.00119 -0.48645,2.681122 -0.483093,6.064789" id="path386-4-4"/>
   <path fill="#8d8f93" fill-rule="evenodd" d="m375.074707,148.098602l0.005066,4.886169c0.003723,3.309174 0.227783,6.064331 0.495056,6.062622l1.774475,-0.01123c0.263245,-0.00119 0.48407,-2.683167 0.480713,-6.068939l-0.005066,-4.886139c-0.003723,-3.383667 -0.220459,-6.060272 -0.492615,-6.058533l-1.774536,0.011261c-0.275391,0.00116 -0.48645,2.681122 -0.483093,6.064789" id="path386-4-4-6"/>
   <path fill="#8d8f93" fill-rule="evenodd" d="m295.882996,147.875366l0.005005,4.724915c0.003784,3.200012 0.227844,5.864258 0.495117,5.86264l1.774475,-0.011261c0.263245,-0.00116 0.484009,-2.594604 0.480652,-5.868683l-0.005005,-4.724945c-0.003723,-3.272003 -0.220459,-5.860321 -0.492676,-5.858643l-1.774475,0.011261c-0.275391,0.00116 -0.48645,2.592651 -0.483093,5.864716" id="path386-4-4-4"/>
   <path fill="#8d8f93" fill-rule="evenodd" d="m255.120789,148.04361l0.005005,4.724945c0.003723,3.200012 0.227844,5.864258 0.495117,5.862579l1.774475,-0.01123c0.263245,-0.001099 0.484009,-2.594635 0.480652,-5.868683l-0.005005,-4.724945c-0.003723,-3.272034 -0.220459,-5.860321 -0.492676,-5.858612l-1.774475,0.011261c-0.275391,0.001099 -0.48645,2.592651 -0.483093,5.864685" id="path386-4-4-4-0"/>
   <path fill="#8d8f93" fill-rule="evenodd" d="m215.233673,148.04361l0.005005,4.724945c0.003754,3.200012 0.227814,5.864258 0.495117,5.862579l1.774445,-0.01123c0.263245,-0.001099 0.484039,-2.594635 0.480682,-5.868683l-0.005005,-4.724945c-0.003723,-3.272034 -0.22049,-5.860321 -0.492676,-5.858612l-1.774475,0.011261c-0.275421,0.001099 -0.48645,2.592651 -0.483093,5.864685" id="path386-4-4-4-2"/>
   <path fill="#8d8f93" fill-rule="evenodd" d="m175.233673,148.04361l0.005005,4.724945c0.003754,3.200012 0.227814,5.864258 0.495117,5.862579l1.774445,-0.01123c0.263245,-0.001099 0.484039,-2.594635 0.480682,-5.868683l-0.005005,-4.724945c-0.003723,-3.272034 -0.22049,-5.860321 -0.492676,-5.858612l-1.774475,0.011261c-0.275421,0.001099 -0.48645,2.592651 -0.483093,5.864685" id="path386-4-4-4-2-9"/>
   <rect fill="#d2d2d1" transform="matrix(1.25,0,0,1.25,0,750) " ry="6.516768" y="-368.82196" x="72.02303" height="13.033536" width="249.43494" id="rect4902-7"/>
   <path fill="#8d8f93" fill-rule="evenodd" d="m335.028687,294.738556l0.005005,4.886139c0.003723,3.309204 0.227783,6.064362 0.495117,6.062653l1.774475,-0.011261c0.263184,-0.00119 0.484009,-2.683167 0.480652,-6.068909l-0.005005,-4.886139c-0.003723,-3.383728 -0.22052,-6.060303 -0.492676,-6.058563l-1.774475,0.01123c-0.275452,0.001221 -0.48645,2.681152 -0.483093,6.06485" id="path386-4-4-43"/>
   <path fill="#8d8f93" fill-rule="evenodd" d="m375.074707,295.098602l0.005066,4.886139c0.003723,3.309204 0.227783,6.064392 0.495056,6.062653l1.774475,-0.011261c0.263245,-0.00119 0.48407,-2.683136 0.480713,-6.068909l-0.005066,-4.886169c-0.003723,-3.383667 -0.220459,-6.060242 -0.492676,-6.058533l-1.774475,0.011261c-0.275391,0.001221 -0.48645,2.681122 -0.483093,6.064819" id="path386-4-4-6-7"/>
   <path fill="#8d8f93" fill-rule="evenodd" d="m295.882996,294.875366l0.005005,4.724945c0.003784,3.200012 0.227844,5.864258 0.495117,5.86261l1.774475,-0.01123c0.263245,-0.001129 0.48407,-2.594635 0.480713,-5.868683l-0.005005,-4.724945c-0.003784,-3.272034 -0.22052,-5.860321 -0.492737,-5.858612l-1.774414,0.0112c-0.275452,0.00116 -0.486511,2.592712 -0.483154,5.864716" id="path386-4-4-4-5"/>
   <path fill="#8d8f93" fill-rule="evenodd" d="m255.120789,295.043579l0.005005,4.724945c0.003723,3.200012 0.227844,5.864258 0.495117,5.86261l1.774475,-0.011261c0.263245,-0.001099 0.48407,-2.594604 0.480713,-5.868652l-0.005005,-4.724945c-0.003784,-3.272064 -0.22052,-5.860321 -0.492737,-5.858643l-1.774414,0.011261c-0.275452,0.001129 -0.486511,2.592651 -0.483154,5.864685" id="path386-4-4-4-0-6"/>
   <path fill="#8d8f93" fill-rule="evenodd" d="m215.233673,295.043579l0.005005,4.724945c0.003754,3.200012 0.227814,5.864258 0.495117,5.86261l1.774445,-0.011261c0.263245,-0.001099 0.484039,-2.594604 0.480682,-5.868652l-0.005005,-4.724945c-0.003723,-3.272064 -0.22049,-5.860321 -0.492676,-5.858643l-1.774475,0.011261c-0.275421,0.001129 -0.48645,2.592651 -0.483093,5.864685" id="path386-4-4-4-2-8"/>
   <path fill="#8d8f93" fill-rule="evenodd" d="m175.233673,295.043579l0.005005,4.724945c0.003754,3.200012 0.227814,5.864258 0.495117,5.86261l1.774445,-0.011261c0.263245,-0.001099 0.484039,-2.594604 0.480682,-5.868652l-0.005005,-4.724945c-0.003723,-3.272064 -0.22049,-5.860321 -0.492676,-5.858643l-1.774475,0.011261c-0.275421,0.001129 -0.48645,2.592651 -0.483093,5.864685" id="path386-4-4-4-2-9-1"/>
  </g>
 </g>
</svg>