<?xml version="1.0" encoding="UTF-8" standalone="no"?>
<svg width="744.09" xmlns="http://www.w3.org/2000/svg" height="1052.4">
 <g id="layer1" transform="rotate(-50.04 341.29 540.09)">
  <path id="path2396" d="m328.08 552.84c0.054779-0.10773 1.2772-2.8243 2.7164-6.0368l2.6168-5.8409 0.5785-0.3016c1.044-0.54437 2.2739-0.79657 3.1688-0.64978 1.3475 0.22101 2.496 1.0907 4.5072 3.413 1.469 1.6962 2.2699 2.3967 3.2124 2.8097 0.71933 0.31525 0.74264 0.31934 1.8146 0.31641 1.1978-0.003174 1.6537-0.11475 2.626-0.64258l0.5016-0.2723 2.7639-6.1746c1.5201-3.3961 2.7641-6.2252 2.7643-6.2869 0.000275-0.077087-0.15457-0.035156-0.49335 0.13342-1.1787 0.58679-2.3913 0.84058-3.257 0.68182-1.3437-0.24646-2.4003-1.0405-4.3525-3.2709-1.3106-1.4973-2.12-2.2771-2.7762-2.6744-1.3576-0.82208-3.0101-0.86829-4.6583-0.13025-0.62006 0.27765-0.63748 0.28101-0.63748 0.12238 0-0.098267-0.39398-0.24432-0.68634-0.25433-0.065552-0.002258-11.257 24.849-11.257 24.997 0 0.031189 0.10187 0.079407 0.22638 0.10712 0.12448 0.027771 0.29279 0.073059 0.37399 0.10071 0.097229 0.033081 0.18158-0.016602 0.24722-0.14569zm17.306-6.5704c-0.25787-0.086975-0.74405-0.33234-1.0804-0.54529l-0.6115-0.3872 0.1574-0.3517c0.086548-0.19348 0.33093-0.7359 0.543-1.2054l0.3856-0.8536 0.5599 0.3739c0.55469 0.37042 1.3832 0.70752 1.739 0.70752 0.1015 0 0.18457 0.043457 0.18457 0.096558 0 0.053162-0.21884 0.5976-0.48627 1.2099-0.54831 1.2554-0.53268 1.2447-1.3912 0.95526zm1.9716-2.2208c0-0.023376 0.23273-0.55713 0.51721-1.186 0.28448-0.62903 0.51721-1.1704 0.51721-1.2032 0-0.032837-0.24332-0.12201-0.54071-0.19812-0.57272-0.14667-0.98233-0.33868-1.5418-0.72284-0.18848-0.1294-0.36371-0.23529-0.3895-0.23529-0.025726 0-0.26932 0.4975-0.54132 1.1056-0.272 0.60803-0.5343 1.1431-0.58286 1.189-0.099457 0.093933-0.59833-0.37054-1.5013-1.3976-0.31271-0.35571-0.57748-0.64667-0.58844-0.64667-0.010956 0-0.24533 0.5069-0.52084 1.1264-0.27551 0.61957-0.53384 1.1265-0.5741 1.1265-0.040283 0-0.27493-0.23462-0.52145-0.52148-0.24658-0.28686-0.69516-0.75165-0.99692-1.0329l-0.5486-0.5114 0.4596-1.0322c0.25278-0.56775 0.48877-1.1046 0.52448-1.1928 0.058167-0.14386 0.10938-0.12225 0.49396 0.20862 0.23596 0.203 0.70349 0.67889 1.0389 1.0575 0.33545 0.3786 0.62433 0.68842 0.64191 0.68842 0.017639 0 0.27286-0.54645 0.5672-1.2144 0.29431-0.66785 0.5462-1.2029 0.55972-1.189 0.013519 0.013916 0.36264 0.40076 0.77582 0.85968s0.87646 0.93835 1.0295 1.0653l0.2783 0.2309 0.498-1.1487c0.27396-0.63184 0.53226-1.1816 0.57407-1.2219 0.041962-0.040405 0.25983 0.060486 0.48642 0.22522 0.45575 0.33136 1.2741 0.69495 1.7428 0.77429 0.16815 0.028503 0.30563 0.077148 0.30563 0.10803 0 0.031006-0.23276 0.57086-0.51718 1.1998-0.28448 0.62903-0.51724 1.1627-0.51724 1.1861 0 0.089478 0.92477 0.036987 1.4378-0.081543 0.29529-0.068237 0.83319-0.25647 1.1953-0.41834 0.36209-0.16174 0.65836-0.28253 0.65836-0.26831 0 0.014221-0.24402 0.56848-0.54224 1.2318l-0.5422 1.206-0.7038 0.312c-0.38718 0.17169-0.93662 0.36633-1.2211 0.43262-0.50311 0.11725-1.4106 0.1745-1.4106 0.088989zm-13.161-4.599c0.26544-0.59082 0.52911-1.1241 0.58585-1.185 0.15832-0.17004 0.89099-0.47681 1.6061-0.67242 0.72827-0.19922 1.7094-0.24255 1.6323-0.072083-0.02594 0.057373-0.27051 0.60187-0.54349 1.2099l-0.4963 1.1056h-0.58514c-0.63159 0-1.5206 0.21655-2.2037 0.53674-0.23276 0.10913-0.43561 0.18787-0.45074 0.17499-0.015137-0.012939 0.18967-0.50696 0.45517-1.0977zm15.461-0.3862c-0.024872-0.057495 0.18396-0.61139 0.46417-1.2307 0.28015-0.61932 0.48981-1.1542 0.46588-1.1887-0.023987-0.034424-0.10297-0.062622-0.1756-0.062622-0.30868 0-1.2103-0.37134-1.7372-0.71552-0.56146-0.3667-0.56952-0.36896-0.65039-0.1825-0.34714 0.79999-0.98666 2.1992-1.0208 2.2331-0.053528 0.053345-0.72318-0.61041-1.451-1.4384-0.3122-0.3551-0.59827-0.62884-0.63565-0.60834-0.037384 0.020508-0.29172 0.54724-0.56516 1.1706-0.27344 0.62335-0.52786 1.1224-0.56537 1.1091-0.037537-0.013428-0.40848-0.3999-0.82437-0.85876-0.41589-0.45898-0.8653-0.92438-0.99863-1.0343l-0.2425-0.1999-0.0876 0.1999c-0.048126 0.10992-0.284 0.64893-0.52411 1.1978-0.24011 0.54883-0.45178 1.0114-0.47034 1.0278-0.018585 0.016479-0.23895-0.10968-0.48972-0.28046-0.48053-0.32709-1.3374-0.70142-1.6106-0.70361-0.45285-0.00354-0.4443-0.10382 0.11542-1.3461 0.29672-0.65863 0.54813-1.2055 0.55866-1.2153 0.010529-0.009827 0.22876 0.031372 0.48498 0.091553 0.57703 0.13544 1.1067 0.37311 1.5837 0.71057 0.20111 0.14227 0.39154 0.25836 0.42322 0.258 0.031677-0.000427 0.28619-0.51666 0.56561-1.1473 0.27942-0.63068 0.52365-1.1631 0.54272-1.1832 0.062927-0.066284 0.88455 0.69293 1.4617 1.3507 0.31207 0.35571 0.5975 0.64667 0.63434 0.64667 0.036804 0 0.29327-0.50897 0.56988-1.131 0.27661-0.62213 0.5282-1.1449 0.55902-1.1619 0.030853-0.016907 0.3588 0.31372 0.72876 0.73474 0.67142 0.76404 1.3109 1.3703 1.3737 1.3021 0.018188-0.019775 0.25848-0.54291 0.53394-1.1625 0.27545-0.61951 0.51181-1.1392 0.52533-1.1548 0.013489-0.015625 0.24994 0.12048 0.52545 0.30255 0.64563 0.42658 0.8569 0.52234 1.5026 0.68103l0.5314 0.1306-0.5079 1.1229c-0.27933 0.61762-0.50794 1.1756-0.50794 1.24 0 0.094543 0.11929 0.10565 0.62149 0.057922 0.69583-0.066101 1.3538-0.24817 2.0844-0.5766 0.27036-0.12152 0.49161-0.18903 0.49161-0.15002 0 0.23712-0.98108 2.2545-1.1686 2.4029-0.61774 0.48901-2.9823 1.0675-3.1145 0.7619zm-13.234-4.5767l0.5427-1.2013 0.5828-0.2734c0.96027-0.45056 2.6617-0.76721 2.6617-0.49536 0 0.059021-0.22858 0.61292-0.5079 1.2308l-0.5079 1.1235-0.6149 0.0552c-0.76407 0.068604-1.459 0.25269-2.131 0.56458-0.28445 0.13208-0.52869 0.23047-0.54266 0.21869-0.013977-0.011719 0.21878-0.56189 0.51724-1.2226zm5.2071-1.6536c-0.18616-0.082947-0.50778-0.19635-0.71466-0.25189-0.20688-0.055664-0.42639-0.11493-0.48773-0.13184-0.073975-0.020386 0.063324-0.41876 0.40762-1.1827 0.28552-0.63361 0.55655-1.1865 0.60226-1.2286 0.19284-0.17773 1.3547 0.26343 2.2334 0.84802l0.2817 0.1874 0.5157-1.1437c0.28366-0.62897 0.56076-1.157 0.61575-1.1733 0.093689-0.02771 1.5944 1.5146 1.8914 1.9437 0.12479 0.18042 0.095795 0.28491-0.37009 1.3326-0.27802 0.62518-0.52985 1.1501-0.55957 1.1664-0.029785 0.016296-0.36948-0.3241-0.75491-0.75641-0.71008-0.79645-1.2888-1.3451-1.3497-1.2794-0.027649 0.029785-0.71469 1.5416-1.0122 2.2272-0.081726 0.18829-0.082214 0.18823-0.52115-0.10907-0.24164-0.16364-0.59164-0.36542-0.77783-0.44842zm-3.4889-2.1329c0-0.022217 0.21359-0.51971 0.47464-1.1056 0.53802-1.2075 0.64343-1.3149 1.6592-1.6914 0.63736-0.23627 2.0372-0.49866 2.1458-0.40228 0.027405 0.024231-0.19281 0.59418-0.48935 1.2664l-0.5391 1.2223-0.5676 0.0011c-0.59283 0.001221-1.8785 0.34045-2.3128 0.61041-0.22168 0.13776-0.3707 0.17755-0.3707 0.099121z"/>
 </g>
</svg>
